<?xml version="1.0" encoding="utf-8"?>
<!-- Generator: Adobe Illustrator 16.0.0, SVG Export Plug-In . SVG Version: 6.00 Build 0)  -->
<!DOCTYPE svg PUBLIC "-//W3C//DTD SVG 1.1//EN" "http://www.w3.org/Graphics/SVG/1.1/DTD/svg11.dtd">
<svg version="1.1" id="Layer_1" xmlns="http://www.w3.org/2000/svg" xmlns:xlink="http://www.w3.org/1999/xlink" x="0px" y="0px"
	 width="541.417px" height="541.417px" viewBox="0 0 541.417 541.417" enable-background="new 0 0 541.417 541.417"
	 xml:space="preserve">
<g>
	
		<path fill="none" stroke="#0000FF" stroke-width="0.0028" stroke-linecap="round" stroke-linejoin="round" stroke-miterlimit="10" d="
		M385.951,175.8h83.1 M385.951,175.8h-0.801l-0.799-0.199l-0.801-0.301l-0.801-0.5l-0.6-0.5l-0.6-0.6l-0.5-0.7l-0.301-0.8
		 M288.15,172.2l1.6-3.8l1.9-3.601l2.301-3.5l2.5-3.199L299.25,155l3-2.8l3.201-2.5l3.5-2.3l3.6-1.9l3.801-1.7l3.799-1.3l4-1
		l4.1-0.7l4.102-0.399h4.1l4.1,0.399l4.1,0.7l4,1l3.9,1.3l3.699,1.7l3.602,1.9l3.5,2.3l3.199,2.5l3,2.8l2.801,3.101l2.5,3.199
		l2.299,3.5l1.9,3.601l1.699,3.8 M288.15,172.2l-0.4,0.8l-0.5,0.7l-0.6,0.6l-0.6,0.5l-0.801,0.5l-0.799,0.301l-0.801,0.199h-0.799
		 M199.751,175.8h83.101 M199.751,175.8l-1.2-0.1l-1.1-0.4l-1.101-0.6l-0.8-0.8l-0.7-1l-0.5-1.2l-0.2-1.2v-1.2 M474.65,169.3
		l-1.199-6.699l-1.5-6.7l-1.801-6.601l-2.1-6.5l-2.4-6.399l-2.799-6.3l-3-6.101l-3.301-6l-3.699-5.8l-3.9-5.6l-4.1-5.4l-4.4-5.3
		l-4.701-5l-4.898-4.801l-5.102-4.5l-5.398-4.299l-5.5-4L409.15,69.6l-5.9-3.5l-6.1-3.199l-6.199-2.9l-6.301-2.5l-6.5-2.3l-6.5-2
		l-6.699-1.601l-6.701-1.299l-6.799-1L344.65,48.6l-6.799-0.299h-6.9L324.15,48.6l-6.799,0.701l-6.801,1l-6.699,1.299L297.25,53.2
		l-6.6,2l-6.5,2.3l-6.299,2.5l-6.201,2.9l-6.1,3.199l-5.9,3.5l-5.699,3.701l-5.5,4l-5.4,4.299l-5.1,4.5l-4.9,4.801l-4.7,5
		l-4.399,5.3l-4.101,5.4l-3.899,5.6l-3.601,5.8l-3.399,6l-3,6.101l-2.801,6.3l-2.399,6.399l-2.101,6.5l-1.8,6.601l-1.5,6.7
		l-1.2,6.699 M474.65,169.3v1.2l-0.199,1.2l-0.5,1.2l-0.6,1l-0.9,0.8l-1.1,0.6l-1.102,0.4l-1.199,0.1 M358.25,190l-0.199-2.8
		l-0.5-2.8l-0.801-2.7l-1.199-2.6l-2.516-1.268l-0.584-3.333l-2-2.1l-2.201-1.7l-2.299-1.5l-2.6-1.3l-2.701-0.9l-2.699-0.5
		l-2.801-0.3l-2.9,0.1l-2.699,0.4l-2.801,0.7l-2.6,1.1l-2.5,1.4l-2.199,1.6l-2.1,1.9l-1.9,2.2l-0.25,3.149l-2.551,1.65l-1,2.6
		l-0.699,2.8l-0.301,2.801v2.8l0.301,2.8l0.699,2.8l1,2.601l1.301,2.5l1.5,2.399l1.9,2.101l2.1,1.899l2.199,1.601l2.5,1.399
		l2.6,1.101l2.801,0.699l2.699,0.4l2.868-1.034l2.833,0.935L340.65,213l2.701-0.899l2.6-1.2l2.299-1.601l2.201-1.699l2-2.101
		l1.699-2.2l1.4-2.399l1.199-2.601l0.801-2.699l0.5-2.801L358.25,190 M431.035,204.2h-45.084 M238.451,273.601h192.584
		 M282.852,204.2h-44.15 M282.852,204.2h0.799l0.801,0.2l0.799,0.3l0.801,0.5l0.6,0.5l0.6,0.6l0.5,0.7l0.4,0.8 M380.75,207.8
		l-1.699,3.801l-1.9,3.6l-2.299,3.5l-2.5,3.2l-2.801,3.1l-3,2.8l-3.199,2.5l-3.5,2.301l-3.602,1.899l-3.699,1.7l-3.9,1.3l-4,1
		l-4.1,0.7l-4.1,0.4h-4.1l-4.102-0.4l-4.1-0.7l-4-1l-3.799-1.3l-3.801-1.7l-3.6-1.899l-3.5-2.301l-3.201-2.5l-3-2.8l-2.799-3.1
		l-2.5-3.2l-2.301-3.5l-1.9-3.6l-1.6-3.801 M380.75,207.8l0.301-0.8l0.5-0.7l0.6-0.6l0.6-0.5l0.801-0.5l0.801-0.3l0.799-0.2h0.801"
		/>
	<g>
		
			<path fill="none" stroke="#0000FF" stroke-width="0.0028" stroke-linecap="round" stroke-linejoin="round" stroke-miterlimit="10" d="
			M238.133,273.601c-19.164,0-34.7-15.536-34.7-34.7c0-19.165,15.536-34.7,34.7-34.7"/>
	</g>
	<g>
		
			<path fill="none" stroke="#0000FF" stroke-width="0.0028" stroke-linecap="round" stroke-linejoin="round" stroke-miterlimit="10" d="
			M454.835,238.533v-1.299l-0.1-1.201l-0.2-1.199l-0.2-1.199l-0.3-1.201l-0.3-1.199l-0.4-1.1l-0.5-1.201l-0.5-1.1l-0.6-1.1
			l-0.953-0.648l-0.699-1l-0.348-1.352l-0.8-1l-0.801-0.9l-0.899-0.801l-0.9-0.799l-1-0.801l-1-0.699l-1-0.701l-1.1-0.6l-1.101-0.5
			l-1.1-0.5l-1.2-0.4l-1.1-0.398l-1.2-0.301l-1.2-0.301l-1.2-0.199l-1.199-0.1l-1.301-0.1h-1.199l-1.2,0.1l-1.2,0.1l-1.3,0.199
			l-1.2,0.301l-1.1,0.301l-1.2,0.398l-1.2,0.4l-1.1,0.5l-1.101,0.5l-1,0.6l-1.1,0.701l-1,0.699l-0.9,0.801l-1,0.799l-0.8,0.801
			l-0.9,0.9l-0.8,1l-0.7,1l-0.514,1.049l-0.601,1l-0.785,1.051l-0.5,1.1l-0.5,1.201l-0.4,1.1l-0.3,1.199l-0.3,1.201l-0.2,1.199
			l-0.2,1.199l-0.1,1.201v1.299v1.201l0.1,1.199l0.2,1.201l0.2,1.199l0.3,1.199l0.3,1.201l0.4,1.199l0.5,1.1l0.5,1.102l0.6,1.1
			l0.601,1l0.699,1l0.7,1l0.8,1l0.9,0.9l0.8,0.799l1,0.801l0.9,0.799l1,0.701l1.1,0.699l1,0.6l1.101,0.5l1.1,0.5l1.2,0.4l1.2,0.4
			l1.1,0.301l1.2,0.299l1.3,0.201l1.2,0.1l1.313-0.35h1.199l1.188,0.35l1.199-0.1l1.2-0.201l1.2-0.299l1.2-0.301l1.1-0.4l1.2-0.4
			l1.1-0.5l1.101-0.5l1.1-0.6l1-0.699l1-0.701l1-0.799l0.9-0.801l0.899-0.799l0.801-0.9l0.8-1l0.7-1l0.699-1l0.601-1l0.6-1.1
			l0.5-1.102l0.5-1.1l0.4-1.199l0.3-1.201l0.3-1.199l0.2-1.199l0.2-1.201l0.1-1.199V238.533"/>
		
			<circle fill="none" stroke="#0000FF" stroke-width="0.0028" stroke-linecap="round" stroke-linejoin="round" stroke-miterlimit="10" cx="431.035" cy="238.9" r="34.7"/>
	</g>
	<g>
		<g>
			
				<path fill="none" stroke="#0000FF" stroke-width="0.0028" stroke-linecap="round" stroke-linejoin="round" stroke-miterlimit="10" d="
				M294.689,71.574l1.202,1.202 M294.686,59.555l-0.635,0.635l-0.494,0.777l-0.424,0.707l-0.427,0.85l-0.279,0.85l-0.143,0.849
				l-0.071,0.919l0.001,0.848l0.071,0.92l0.139,0.85l0.285,0.848l0.424,0.85l0.426,0.703l0.495,0.779l0.636,0.637 M298.719,55.522
				l-4.033,4.032 M310.737,55.521l-0.707-0.566l-0.708-0.565l-0.776-0.352l-0.849-0.426l-0.85-0.281L306,53.188l-0.85-0.141
				l-0.92,0.071l-0.848-0.003l-0.92,0.217l-0.848,0.281l-0.777,0.354l-0.778,0.494l-0.776,0.496l-0.564,0.565 M330.752,75.527
				l-20.015-20.007 M330.756,87.547l0.566-0.564l0.564-0.707l0.424-0.849l0.354-0.778l0.285-0.849l0.21-0.917l0.07-0.781
				l0.001-0.989l-0.143-0.849l-0.143-0.848l-0.282-0.848l-0.354-0.777l-0.424-0.852l-0.566-0.704l-0.566-0.708 M285.086,133.236
				l45.67-45.689 M268.613,149.717l16.473-16.48 M291.099,139.246l-16.472,16.479 M294.635,135.708l-3.536,3.538 M295.695,136.77
				l-1.061-1.062 M295.696,148.791l0.566-0.706l0.564-0.708l0.496-0.777l0.282-0.85l0.283-0.85l0.141-0.848l0.141-0.848l-0.001-0.85
				l-0.069-0.92l-0.213-0.92l-0.283-0.846l-0.354-0.781l-0.494-0.775l-0.424-0.707l-0.637-0.637 M269.682,174.818l26.015-26.027
				 M249.594,154.742l20.088,20.076 M307.705,96.603l-58.111,58.14 M307.703,84.584l0.566,0.705l0.566,0.707l0.424,0.707l0.354,0.92
				l0.281,0.85l0.213,0.776l0.072,0.919v0.85l-0.069,0.919l-0.21,0.917l-0.285,0.851l-0.355,0.78l-0.493,0.775l-0.424,0.708
				l-0.638,0.635 M299.5,76.383l8.203,8.201 M299.5,76.383l3.039-5.02 M302.539,71.363l4.948-2.973 M303.879,64.783l0.355-0.354
				l0.496-0.21l0.422-0.144l0.496-0.068l0.496,0.068l0.564,0.142l0.354,0.213l0.425,0.282l0.282,0.424l0.281,0.424l0.145,0.564
				l-0.001,0.427l0.001,0.567l-0.143,0.424l-0.281,0.422l-0.284,0.426 M303.879,64.783l-3.038,5.021 M300.841,69.805l-4.949,2.972"
				/>
			
				<path fill="none" stroke="#0000FF" stroke-width="0.0028" stroke-linecap="round" stroke-linejoin="round" stroke-miterlimit="10" d="
				M251.568,124.76l0.99,0.99 M251.568,124.76l-0.637-0.638l-0.637-0.493l-0.707-0.426l-0.779-0.354l-0.777-0.211l-0.775-0.211
				l-0.85-0.142l-0.85-0.001h-0.848l-0.848,0.141l-0.779,0.215l-0.776,0.211l-0.778,0.354l-0.708,0.426l-0.637,0.496l-0.636,0.635
				 M213.531,150.789l26.016-26.027 M233.547,170.797l-20.016-20.008 M249.594,154.742l-16.047,16.055 M299.5,76.383l-0.85-0.282
				l-0.778-0.354l-0.706-0.282l-0.848-0.143l-0.849-0.143l-0.778-0.067l-0.85-0.001l-0.848,0.143l-0.778,0.212l-0.849,0.282
				l-0.705,0.424l-0.709,0.424l-0.708,0.426l-0.563,0.564 M284.65,81.617l4.031-4.031 M284.65,81.617l-0.565,0.565l-0.495,0.78
				l-0.422,0.707l-0.426,0.707l-0.211,0.777l-0.213,0.777l-0.143,0.849l0.002,0.849l-0.001,0.848l0.144,0.85l0.211,0.777
				l0.212,0.779l0.354,0.775l0.426,0.707l0.564,0.709l0.567,0.564 M285.855,94.841l-1.2-1.202 M285.855,94.841l4.949-2.971
				 M290.805,91.87l3.039-5.021 M297.451,90.454l0.354-0.354l0.14-0.425l0.212-0.492v-0.425l0.071-0.496l-0.143-0.422l-0.211-0.498
				l-0.212-0.352l-0.354-0.354l-0.425-0.282l-0.425-0.142l-0.424-0.141l-0.495,0.071l-0.425-0.001l-0.493,0.215l-0.424,0.14
				l-0.355,0.354 M297.451,90.454l-4.947,2.97 M292.504,93.424l-3.041,5.021 M289.463,98.445l-0.141,0.709l-0.211,0.635
				l-0.213,0.638l-0.213,0.638l-0.354,0.635l-0.424,0.565l-0.352,0.495l-0.497,0.495 M256.094,134.234l30.966-30.979
				 M238.563,151.771l17.53-17.537 M250.084,128.227l-17.531,17.539 M252.559,125.75l-2.475,2.477"/>
		</g>
		
			<path fill="none" stroke="#0000FF" stroke-width="0.0028" stroke-linecap="round" stroke-linejoin="round" stroke-miterlimit="10" d="
			M238.563,151.771c-1.659,1.66-4.349,1.661-6.009,0.003c-1.66-1.659-1.661-4.349-0.003-6.009"/>
		
			<path fill="none" stroke="#0000FF" stroke-width="0.0028" stroke-linecap="round" stroke-linejoin="round" stroke-miterlimit="10" d="
			M274.625,155.723c-1.658,1.66-4.348,1.66-6.008,0.002s-1.662-4.349-0.004-6.008"/>
	</g>
	<g>
		<g>
			
				<path fill="none" stroke="#0000FF" stroke-width="0.0028" stroke-linecap="round" stroke-linejoin="round" stroke-miterlimit="10" d="
				M373.707,72.776l1.201-1.202 M374.908,71.574l0.637-0.637l0.495-0.779l0.426-0.703l0.423-0.85l0.285-0.848l0.14-0.85l0.071-0.92
				l0.002-0.848l-0.072-0.919l-0.143-0.849l-0.279-0.85l-0.427-0.85l-0.423-0.707l-0.496-0.777l-0.635-0.635 M374.912,59.555
				l-4.032-4.032 M370.88,55.522l-0.565-0.565l-0.775-0.496l-0.777-0.494l-0.777-0.354l-0.85-0.281l-0.919-0.217l-0.848,0.003
				l-0.92-0.071l-0.849,0.141l-0.849,0.143l-0.851,0.281l-0.848,0.426l-0.775,0.352l-0.709,0.565l-0.707,0.566 M358.861,55.521
				l-20.016,20.007 M338.846,75.527l-0.565,0.708l-0.567,0.704l-0.424,0.852l-0.354,0.777l-0.283,0.848l-0.141,0.848l-0.144,0.849
				l0.001,0.989l0.07,0.781l0.211,0.917l0.284,0.849l0.354,0.778l0.423,0.849l0.566,0.707l0.565,0.564 M338.843,87.547
				l45.669,45.689 M384.512,133.236l16.473,16.48 M394.973,155.725L378.5,139.246 M378.5,139.246l-3.535-3.538 M374.965,135.708
				l-1.061,1.062 M373.904,136.77l-0.637,0.637l-0.424,0.707l-0.494,0.775l-0.355,0.781l-0.283,0.846l-0.213,0.92l-0.068,0.92
				l-0.002,0.85l0.143,0.848l0.14,0.848l0.283,0.85l0.282,0.85l0.496,0.777l0.564,0.708l0.566,0.706 M373.902,148.791l26.016,26.027
				 M399.918,174.818l20.086-20.076 M420.004,154.742l-58.111-58.14 M361.893,96.603l-0.637-0.635l-0.424-0.708l-0.494-0.775
				l-0.354-0.78l-0.285-0.851l-0.211-0.917l-0.07-0.919l0.001-0.85l0.071-0.919l0.213-0.776l0.281-0.85l0.354-0.92l0.423-0.707
				l0.568-0.707l0.565-0.705 M361.896,84.584l8.202-8.201 M367.059,71.363l3.039,5.02 M362.111,68.391l4.947,2.973 M362.111,68.391
				l-0.283-0.426l-0.282-0.422l-0.142-0.424v-0.567v-0.427l0.143-0.564l0.283-0.424l0.281-0.424l0.426-0.282l0.352-0.213
				l0.565-0.142l0.495-0.068l0.497,0.068l0.423,0.144l0.494,0.21l0.356,0.354 M368.758,69.805l-3.038-5.021 M373.707,72.776
				l-4.949-2.972"/>
			
				<path fill="none" stroke="#0000FF" stroke-width="0.0028" stroke-linecap="round" stroke-linejoin="round" stroke-miterlimit="10" d="
				M417.041,125.75l0.99-0.99 M430.052,124.762l-0.636-0.635l-0.637-0.496l-0.708-0.426l-0.778-0.354l-0.776-0.211l-0.779-0.215
				l-0.848-0.141h-0.848l-0.85,0.001l-0.85,0.142l-0.775,0.211l-0.778,0.211l-0.778,0.354l-0.707,0.426l-0.637,0.493l-0.636,0.638
				 M430.052,124.762l26.016,26.027 M456.067,150.789l-20.016,20.008 M436.052,170.797l-16.048-16.055 M380.918,77.586l-0.564-0.564
				l-0.709-0.426l-0.707-0.424l-0.706-0.424l-0.849-0.282l-0.777-0.212l-0.85-0.143l-0.848,0.001l-0.779,0.067l-0.848,0.143
				l-0.848,0.143l-0.707,0.282l-0.777,0.354l-0.852,0.282 M380.918,77.586l4.03,4.031 M384.943,93.639l0.567-0.564l0.565-0.709
				l0.424-0.707l0.355-0.775l0.212-0.779l0.212-0.777l0.143-0.85l-0.001-0.848l0.001-0.849l-0.142-0.849l-0.212-0.777l-0.211-0.777
				l-0.427-0.707l-0.422-0.707l-0.495-0.78l-0.565-0.565 M384.943,93.639l-1.201,1.202 M378.794,91.87l4.948,2.971 M375.754,86.85
				l3.04,5.021 M375.754,86.85l-0.354-0.354l-0.424-0.14l-0.494-0.215l-0.425,0.001l-0.495-0.071l-0.424,0.141l-0.426,0.142
				l-0.424,0.282l-0.354,0.354l-0.213,0.352l-0.211,0.498l-0.143,0.422l0.072,0.496v0.425l0.212,0.492l0.14,0.425l0.355,0.354
				 M377.094,93.424l-4.945-2.97 M380.136,98.445l-3.042-5.021 M382.539,103.255l-0.496-0.495l-0.352-0.495l-0.424-0.565
				l-0.354-0.635l-0.213-0.638l-0.213-0.638l-0.211-0.635l-0.142-0.709 M382.539,103.255l30.965,30.979 M413.504,134.234
				l17.531,17.537 M437.046,145.766l-17.53-17.539 M419.516,128.227l-2.475-2.477"/>
		</g>
		
			<path fill="none" stroke="#0000FF" stroke-width="0.0028" stroke-linecap="round" stroke-linejoin="round" stroke-miterlimit="10" d="
			M431.035,151.771c1.659,1.66,4.349,1.661,6.009,0.003c1.66-1.659,1.661-4.349,0.003-6.009"/>
		
			<path fill="none" stroke="#0000FF" stroke-width="0.0028" stroke-linecap="round" stroke-linejoin="round" stroke-miterlimit="10" d="
			M394.973,155.723c1.66,1.66,4.35,1.66,6.009,0.002c1.66-1.658,1.661-4.349,0.003-6.008"/>
	</g>
</g>
<circle fill="none" stroke="#0000FF" stroke-width="0.0028" stroke-linecap="round" stroke-linejoin="round" stroke-miterlimit="10" cx="334.4" cy="190" r="170"/>
<g>
	<path fill="none" stroke="#FF00FF" stroke-width="0.0028" d="M392.141,194.191v-10.564h-1.773v-1.762h5.034
		c1.479,0,2.587,0.104,3.322,0.313c0.735,0.21,1.353,0.684,1.849,1.423c0.496,0.74,0.744,1.612,0.744,2.618
		c0,0.804-0.164,1.524-0.491,2.163c-0.327,0.638-0.733,1.108-1.216,1.412c-0.482,0.305-1.025,0.508-1.631,0.613
		c-0.604,0.104-1.518,0.156-2.738,0.156h-0.973v3.627h1.822v1.762h-5.723v-1.762H392.141z M394.268,188.863h1.215
		c1.385,0,2.344-0.197,2.877-0.592c0.533-0.396,0.8-1.093,0.8-2.092c0-0.635-0.142-1.162-0.425-1.58
		c-0.284-0.419-0.635-0.686-1.054-0.801c-0.419-0.114-1.118-0.172-2.097-0.172h-1.316V188.863z"/>
	<path fill="none" stroke="#FF00FF" stroke-width="0.0028" d="M402.016,191.051c0-1.512,0.499-2.753,1.498-3.722
		c1-0.969,2.219-1.454,3.656-1.454c1.412,0,2.623,0.479,3.637,1.434c1.013,0.955,1.52,2.203,1.52,3.742s-0.506,2.789-1.515,3.748
		c-1.01,0.959-2.224,1.438-3.642,1.438c-1.458,0-2.682-0.486-3.671-1.458S402.016,192.563,402.016,191.051z M404.051,191.046
		c0,0.968,0.303,1.761,0.906,2.38c0.604,0.617,1.342,0.928,2.213,0.928c0.885,0,1.626-0.313,2.224-0.938
		c0.598-0.625,0.896-1.415,0.896-2.369c0-0.961-0.304-1.752-0.911-2.374c-0.608-0.621-1.344-0.933-2.209-0.933
		c-0.904,0-1.65,0.317-2.238,0.953C404.345,189.328,404.051,190.112,404.051,191.046z"/>
	<path fill="none" stroke="#FF00FF" stroke-width="0.0028" d="M415.273,194.242v-10.666h-1.742v-1.711h3.666v12.377h1.499v1.711
		h-5.165v-1.711H415.273z"/>
	<path fill="none" stroke="#FF00FF" stroke-width="0.0028" d="M429.918,194.242v1.711h-3.362v-1.195
		c-0.932,0.905-1.972,1.357-3.119,1.357c-0.892,0-1.667-0.291-2.325-0.871s-0.986-1.323-0.986-2.229
		c0-0.911,0.349-1.668,1.048-2.269c0.698-0.601,1.541-0.901,2.526-0.901c0.918,0,1.807,0.277,2.664,0.83v-0.972
		c0-0.499-0.047-0.885-0.142-1.155c-0.095-0.27-0.315-0.512-0.663-0.729s-0.803-0.324-1.363-0.324c-0.965,0-1.664,0.385-2.096,1.154
		l-1.844-0.486c0.816-1.525,2.229-2.289,4.234-2.289c0.735,0,1.371,0.1,1.908,0.299s0.938,0.457,1.201,0.771
		c0.263,0.313,0.439,0.653,0.531,1.018c0.091,0.364,0.137,0.945,0.137,1.742v4.538H429.918z M426.363,192.307
		c-0.83-0.648-1.671-0.973-2.521-0.973c-0.533,0-0.979,0.156-1.338,0.467c-0.357,0.311-0.536,0.713-0.536,1.205
		c0,0.459,0.157,0.844,0.471,1.154s0.741,0.467,1.281,0.467c0.933,0,1.813-0.393,2.644-1.176V192.307z"/>
	<path fill="none" stroke="#FF00FF" stroke-width="0.0028" d="M432.612,194.242v-6.381h-1.976v-1.713h3.516v2.209
		c0.215-0.574,0.516-1.051,0.9-1.429s0.792-0.628,1.221-0.749c0.43-0.121,1.015-0.183,1.758-0.183h0.506v1.944h-0.385
		c-0.979,0-1.71,0.098-2.192,0.294c-0.483,0.196-0.841,0.552-1.073,1.069c-0.233,0.516-0.35,1.442-0.35,2.779v2.158h2.137v1.711
		h-6.037v-1.711H432.612z"/>
	<path fill="none" stroke="#FF00FF" stroke-width="0.0028" d="M450.944,186.148v1.713h-1.763v7.302c0,0.985-0.051,1.717-0.151,2.192
		c-0.101,0.477-0.347,0.963-0.734,1.459s-0.971,0.913-1.747,1.25c-0.776,0.338-1.645,0.508-2.604,0.508
		c-1.444,0-2.734-0.436-3.868-1.307l1.256-1.398c0.851,0.662,1.775,0.992,2.774,0.992c0.555,0,1.067-0.105,1.54-0.318
		s0.825-0.471,1.059-0.775c0.233-0.303,0.383-0.592,0.45-0.865c0.068-0.273,0.102-0.734,0.102-1.383v-0.891
		c-0.304,0.385-0.779,0.749-1.428,1.094c-0.648,0.344-1.357,0.516-2.127,0.516c-1.404,0-2.549-0.486-3.434-1.458
		s-1.327-2.167-1.327-3.585c0-1.553,0.487-2.808,1.464-3.764c0.976-0.955,2.105-1.433,3.388-1.433c1.296,0,2.451,0.517,3.464,1.55
		v-1.398H450.944z M440.988,191.152c0,0.992,0.289,1.803,0.866,2.431s1.315,0.942,2.213,0.942c0.878,0,1.634-0.316,2.269-0.947
		s0.952-1.443,0.952-2.436c0-1.006-0.317-1.814-0.952-2.426s-1.371-0.917-2.207-0.917c-0.838,0-1.57,0.302-2.199,0.907
		C441.303,189.311,440.988,190.126,440.988,191.152z"/>
	<path fill="none" stroke="#FF00FF" stroke-width="0.0028" d="M453.607,194.242v-6.381h-1.975v-1.713h3.515v2.209
		c0.216-0.574,0.517-1.051,0.901-1.429s0.791-0.628,1.221-0.749c0.429-0.121,1.014-0.183,1.757-0.183h0.507v1.944h-0.385
		c-0.979,0-1.711,0.098-2.193,0.294s-0.84,0.552-1.073,1.069c-0.233,0.516-0.35,1.442-0.35,2.779v2.158h2.138v1.711h-6.037v-1.711
		H453.607z"/>
	<path fill="none" stroke="#FF00FF" stroke-width="0.0028" d="M470.057,194.242v1.711h-3.363v-1.195
		c-0.932,0.905-1.972,1.357-3.119,1.357c-0.892,0-1.666-0.291-2.324-0.871s-0.988-1.323-0.988-2.229c0-0.911,0.35-1.668,1.049-2.269
		s1.541-0.901,2.527-0.901c0.918,0,1.806,0.277,2.663,0.83v-0.972c0-0.499-0.048-0.885-0.142-1.155
		c-0.095-0.27-0.316-0.512-0.664-0.729s-0.801-0.324-1.361-0.324c-0.966,0-1.665,0.385-2.097,1.154l-1.844-0.486
		c0.817-1.525,2.229-2.289,4.233-2.289c0.736,0,1.373,0.1,1.91,0.299c0.536,0.199,0.936,0.457,1.199,0.771s0.441,0.653,0.532,1.018
		s0.137,0.945,0.137,1.742v4.538H470.057z M466.501,192.307c-0.831-0.648-1.671-0.973-2.522-0.973c-0.533,0-0.979,0.156-1.336,0.467
		c-0.358,0.311-0.537,0.713-0.537,1.205c0,0.459,0.156,0.844,0.471,1.154s0.741,0.467,1.281,0.467c0.932,0,1.813-0.393,2.644-1.176
		V192.307z"/>
	<path fill="none" stroke="#FF00FF" stroke-width="0.0028" d="M472.254,198.637v-10.775h-1.65v-1.713h3.574v1.54
		c0.959-1.128,2.121-1.691,3.484-1.691c1.377,0,2.518,0.473,3.418,1.418c0.902,0.945,1.353,2.175,1.353,3.687
		c0,1.587-0.489,2.84-1.469,3.758s-2.093,1.377-3.343,1.377c-1.296,0-2.443-0.499-3.443-1.498v3.898h1.904v1.712h-5.621v-1.712
		H472.254z M474.148,191.193c0,0.54,0.111,1.057,0.334,1.549c0.223,0.493,0.576,0.906,1.063,1.241
		c0.486,0.334,1.057,0.501,1.713,0.501c0.918,0,1.676-0.307,2.273-0.922c0.598-0.613,0.896-1.458,0.896-2.531
		c0-1.047-0.313-1.863-0.938-2.451s-1.335-0.881-2.132-0.881c-0.851,0-1.599,0.318-2.243,0.957
		C474.471,189.294,474.148,190.14,474.148,191.193z"/>
	<path fill="none" stroke="#FF00FF" stroke-width="0.0028" d="M485.481,194.242v-10.666h-1.772v-1.711h3.697v5.408
		c1.154-0.932,2.252-1.398,3.291-1.398c0.648,0,1.182,0.136,1.601,0.406c0.419,0.27,0.704,0.626,0.856,1.068
		c0.151,0.441,0.227,1.088,0.227,1.939v4.953h1.672v1.711h-3.596v-5.996c0-0.742-0.023-1.238-0.07-1.488
		c-0.048-0.25-0.178-0.456-0.391-0.618s-0.465-0.243-0.754-0.243c-0.743,0-1.688,0.422-2.836,1.266v5.369h1.701v1.711h-5.398v-1.711
		H485.481z"/>
	<path fill="none" stroke="#FF00FF" stroke-width="0.0028" d="M496.957,195.953v-2.492h2.49v2.492H496.957z"/>
</g>
<g>
	
		<path fill="none" stroke="#0000FF" stroke-width="0.0028" stroke-linecap="round" stroke-linejoin="round" stroke-miterlimit="10" d="
		M429.915,504.634l-0.813-2.8l-1.4-2.801l-1.5-2.699l-1.6-2.7l-1.7-2.5l-1.8-2.5l-2-2.399l-2-2.301l-2.2-2.3l-2.3-2.101l-2.3-2
		l-4.234-3.033"/>
	
		<path fill="none" stroke="#0000FF" stroke-width="0.0028" stroke-linecap="round" stroke-linejoin="round" stroke-miterlimit="10" d="
		M488.158,475.734l-2.787,1.799l-2.3,2l-2.3,2.101l-2.2,2.3l-2,2.301l-2,2.399l-1.8,2.5l-1.7,2.5l-1.6,2.7l-1.5,2.699l-1.4,2.801
		l-0.813,2.8"/>
	
		<path fill="none" stroke="#0000FF" stroke-width="0.0028" stroke-linecap="round" stroke-linejoin="round" stroke-miterlimit="10" d="
		M452.167,472.1l2.701-0.301l2.699-0.5l2.6-0.6l2.5-0.699l2.6-0.9l2.5-1l2.4-1.1l2.401-1.301l2.299-1.4l2.201-1.5l2.1-1.6l2-1.8
		l2-1.8l1.799-2l1.801-2l1.616-2.192l1.483-2.208l1.301-2.3l1.299-2.3l1.102-2.5l1-2.5l0.799-2.5l0.801-2.6l0.5-2.601l0.5-2.7
		l0.199-2.699l0.201-2.601v-2.7l-0.201-2.699l-0.299-2.701l-0.4-2.6l-0.6-2.6l-0.701-2.6l-0.9-2.5l-1-2.5l-1.1-2.5l-1.299-2.301
		l-1.4-2.3l-1.5-2.3l-1.6-2.1l-1.701-2l-1.9-2l-1.898-1.801l-2.102-1.8l-2.1-1.601l-2.199-1.5l-2.301-1.399l-2.399-1.2l-2.4-1.1
		l-2.5-1l-2.6-0.9l-2.6-0.699l-2.602-0.6l-2.6-0.4l-2.699-0.301l-2.9,0.635l-2.5-0.734l-2.6,0.1l-2.701,0.301l-2.6,0.4l-2.699,0.6
		l-2.6,0.699l-2.5,0.9l-2.5,1l-2.4,1.1l-2.4,1.201l-2.301,1.398l-2.199,1.5l-2.199,1.602l-2,1.799l-1.9,1.801l-1.9,2l-1.699,2
		l-1.701,2.1l-1.5,2.301l-1.4,2.299l-1.199,2.301l-1.1,2.5l-1,2.5l-0.9,2.5l-0.699,2.6l-0.602,2.6l-0.5,2.6l-0.199,2.701
		l-0.199,2.699v2.7l0.1,2.601l0.299,2.699l0.4,2.7l0.6,2.601l0.701,2.6l0.9,2.5l1,2.5l1.1,2.5l1.934,1.816l0.666,2.783l1.5,2.301
		l1.6,2.1l1.701,2l1.898,2l1.9,1.8l2.1,1.8l2.102,1.6l2.199,1.5l2.301,1.4l2.398,1.301l2.4,1.1l2.5,1l2.5,0.9l2.6,0.699l2.602,0.6
		l2.699,0.5l2.6,0.301 M488.158,475.734l1.709-1.234l2.301-2l2.299-2.101l2.102-2.3l2.1-2.301l2-2.399l1.799-2.5l1.701-2.5l1.6-2.7
		l1.5-2.699l1.301-2.801l1.199-2.8l1.1-2.899l1-3l0.801-3l0.6-3l0.6-3l0.4-3.101l0.199-3.101l0.102-3.1v-3.1l-0.201-3.1l-0.4-3
		l-0.398-3.101l-0.701-3l-0.699-3l-0.9-3l-1-2.899l-1.199-2.9l-1.301-2.801l-1.4-2.699l-1.6-2.7l-1.699-2.601l-1.801-2.5l-1.9-2.5
		l-2-2.299l-2.1-2.301l-2.199-2.1l-2.4-2l-2.4-2l-2.5-1.801l-2.6-1.699l-2.6-1.6l-2.801-1.4l-2.801-1.301l-2.799-1.199l-2.901-1.1
		l-3-0.9l-3-0.801l-3-0.6l-3.1-0.5l-3-0.4l-3.1-0.199l-3.1-0.1l-3.1,0.1l-3.102,0.199l-3.1,0.4l-3,0.5l-3,0.6l-3,0.801l-3,0.9
		l-2.9,1.1l-2.898,1.199l-2.801,1.301l-2.699,1.4l-2.701,1.6l-2.5,1.699l-2.5,1.801l-2.5,2l-2.299,2l-2.201,2.1l-2.1,2.301
		l-2.1,2.299l-1.9,2.5l-1.801,2.5l-1.6,2.602l-1.6,2.699l-1.4,2.699l-1.299,2.801l-1.201,2.9l-1,2.9l-0.9,3l-0.799,3l-0.6,3
		l-0.5,3.1l-0.301,3l-0.199,3.1v3.1l0.1,3.1l0.199,3.101l0.4,3.101l0.5,3l0.699,3l0.801,3l0.9,3l1.1,2.899l1.199,2.8l1.4,2.801
		l1.5,2.699l1.6,2.7l1.701,2.5l1.799,2.5l2,2.399l2,2.301l2.201,2.3l2.299,2.101l2.301,2 M468.167,486.1 M443.667,517.6l-1.1-0.1
		l-1.199-0.201l-1.201-0.399l-1.1-0.5l-1.1-0.7l-1.1-0.8l-1-0.899l-1-1.101l-1-1.2l-0.9-1.3l-0.801-1.5l-0.799-1.5l-0.895-1.7
		l-0.559-1.065 M452.167,517.6h-8.5 M452.167,517.6l1.201-0.1l1.199-0.201l1.1-0.399l1.201-0.5l1.1-0.7l1.1-0.8l1-0.899l1-1.101
		l0.9-1.2l0.9-1.3l0.898-1.5l0.801-1.5l1.19-2.766"/>
	
		<path fill="none" stroke="#0000FF" stroke-width="0.0028" stroke-linecap="round" stroke-linejoin="round" stroke-miterlimit="10" d="
		M471.768,422.285v-1.3l-0.1-1.2l-0.2-1.2l-0.2-1.199l-0.3-1.201l-0.3-1.199l-0.4-1.1l-0.5-1.201l-0.5-1.1l-0.6-1.1l-0.953-0.648
		l-0.699-1l-0.348-1.352l-0.8-1l-0.801-0.9l-0.899-0.8l-0.9-0.8l-1-0.801l-1-0.699l-1-0.7l-1.1-0.601l-1.101-0.5l-1.1-0.5
		l-1.2-0.399l-1.1-0.399l-1.2-0.301l-1.2-0.3l-1.2-0.2l-1.199-0.1l-1.301-0.1h-1.199l-1.2,0.1l-1.2,0.1l-1.3,0.2l-1.2,0.3
		l-1.1,0.301l-1.2,0.399l-1.2,0.399l-1.1,0.5l-1.101,0.5l-1,0.601l-1.1,0.7l-1,0.699l-0.9,0.801l-1,0.8l-0.8,0.8l-0.9,0.9l-0.8,1
		l-0.7,1l-0.514,1.049l-0.601,1l-0.785,1.051l-0.5,1.1l-0.5,1.201l-0.4,1.1l-0.3,1.199l-0.3,1.201l-0.2,1.199l-0.2,1.2l-0.1,1.2v1.3
		v1.2l0.1,1.199l0.2,1.201l0.2,1.199l0.3,1.2l0.3,1.2l0.4,1.199l0.5,1.101l0.5,1.101l0.6,1.1l0.601,1l0.699,1l0.7,1l0.8,1l0.9,0.9
		l0.8,0.799l1,0.801l0.9,0.8l1,0.7l1.1,0.699l1,0.601l1.101,0.5l1.1,0.5l1.2,0.399l1.2,0.4l1.1,0.301l1.2,0.299l1.3,0.201l1.2,0.1
		l1.313-0.35h1.199l1.188,0.35l1.199-0.1l1.2-0.201l1.2-0.299l1.2-0.301l1.1-0.4l1.2-0.399l1.1-0.5l1.101-0.5l1.1-0.601l1-0.699
		l1-0.7l1-0.8l0.9-0.801l0.899-0.799l0.801-0.9l0.8-1l0.7-1l0.699-1l0.601-1l0.6-1.1l0.5-1.101l0.5-1.101l0.4-1.199l0.3-1.2l0.3-1.2
		l0.2-1.199l0.2-1.201l0.1-1.199V422.285"/>
	
		<circle fill="none" stroke="#0000FF" stroke-width="0.0028" stroke-linecap="round" stroke-linejoin="round" stroke-miterlimit="10" cx="447.968" cy="422.186" r="32.3"/>
	
		<path fill="none" stroke="#0000FF" stroke-width="0.0028" stroke-linecap="round" stroke-linejoin="round" stroke-miterlimit="10" d="
		M443.667,472.1v17.199c0,2.347,1.902,4.25,4.25,4.25s4.25-1.903,4.25-4.25V472.1"/>
</g>
<g>
	
		<path fill="none" stroke="#0000FF" stroke-width="0.0028" stroke-linecap="round" stroke-linejoin="round" stroke-miterlimit="10" d="
		M79.747,498.561l-0.813-2.8l-1.4-2.801l-1.5-2.699l-1.6-2.7l-1.7-2.5l-1.8-2.5l-2-2.399l-2-2.301l-2.2-2.3l-2.3-2.101l-2.3-2
		l-4.234-3.033"/>
	
		<path fill="none" stroke="#0000FF" stroke-width="0.0028" stroke-linecap="round" stroke-linejoin="round" stroke-miterlimit="10" d="
		M137.99,469.661l-2.787,1.799l-2.3,2l-2.3,2.101l-2.2,2.3l-2,2.301l-2,2.399l-1.8,2.5l-1.7,2.5l-1.6,2.7l-1.5,2.699l-1.4,2.801
		l-0.813,2.8"/>
	
		<path fill="none" stroke="#0000FF" stroke-width="0.0028" stroke-linecap="round" stroke-linejoin="round" stroke-miterlimit="10" d="
		M101.999,466.026l2.701-0.301l2.699-0.5l2.6-0.6l2.5-0.699l2.6-0.9l2.5-1l2.4-1.1l2.401-1.301l2.299-1.4l2.201-1.5l2.1-1.6l2-1.8
		l2-1.8l1.799-2l1.801-2l1.616-2.192l1.483-2.208l1.301-2.3l1.299-2.3l1.102-2.5l1-2.5l0.799-2.5l0.801-2.6l0.5-2.601l0.5-2.7
		l0.199-2.699l0.201-2.601v-2.7l-0.201-2.699l-0.299-2.701l-0.4-2.6l-0.6-2.6l-0.701-2.6l-0.9-2.5l-1-2.5l-1.1-2.5l-1.299-2.301
		l-1.4-2.3l-1.5-2.3l-1.6-2.1l-1.701-2l-1.9-2l-1.898-1.801l-2.102-1.8l-2.1-1.601l-2.199-1.5l-2.301-1.399l-2.399-1.2l-2.4-1.1
		l-2.5-1l-2.6-0.9l-2.6-0.699l-2.602-0.6l-2.6-0.4l-2.699-0.301l-2.9,0.635l-2.5-0.734l-2.6,0.1l-2.701,0.301l-2.6,0.4l-2.699,0.6
		l-2.6,0.699l-2.5,0.9l-2.5,1l-2.4,1.1l-2.4,1.201l-2.301,1.398l-2.199,1.5l-2.199,1.602l-2,1.799l-1.9,1.801l-1.9,2l-1.699,2
		l-1.701,2.1l-1.5,2.301l-1.4,2.299l-1.199,2.301l-1.1,2.5l-1,2.5l-0.9,2.5l-0.699,2.6l-0.602,2.6l-0.5,2.6l-0.199,2.701
		l-0.199,2.699v2.7l0.1,2.601l0.299,2.699l0.4,2.7l0.6,2.601l0.701,2.6l0.9,2.5l1,2.5l1.1,2.5l1.934,1.816l0.666,2.783l1.5,2.301
		l1.6,2.1l1.701,2l1.898,2l1.9,1.8l2.1,1.8l2.102,1.6l2.199,1.5l2.301,1.4l2.398,1.301l2.4,1.1l2.5,1l2.5,0.9l2.6,0.699l2.602,0.6
		l2.699,0.5l2.6,0.301 M137.99,469.661l1.709-1.234l2.301-2l2.299-2.101l2.102-2.3l2.1-2.301l2-2.399l1.799-2.5l1.701-2.5l1.6-2.7
		l1.5-2.699l1.301-2.801l1.199-2.8l1.1-2.899l1-3l0.801-3l0.6-3l0.6-3l0.4-3.101l0.199-3.101l0.102-3.1v-3.1l-0.201-3.1l-0.4-3
		l-0.398-3.101l-0.701-3l-0.699-3l-0.9-3l-1-2.899l-1.199-2.9l-1.301-2.801l-1.4-2.699l-1.6-2.7l-1.699-2.601l-1.801-2.5l-1.9-2.5
		l-2-2.299l-2.1-2.301l-2.199-2.1l-2.4-2l-2.4-2l-2.5-1.801l-2.6-1.699l-2.6-1.6l-2.801-1.4l-2.801-1.301L122,354.526l-2.901-1.1
		l-3-0.9l-3-0.801l-3-0.6l-3.1-0.5l-3-0.4l-3.1-0.199l-3.1-0.1l-3.1,0.1l-3.102,0.199l-3.1,0.4l-3,0.5l-3,0.6l-3,0.801l-3,0.9
		l-2.9,1.1l-2.898,1.199l-2.801,1.301l-2.699,1.4l-2.701,1.6l-2.5,1.699l-2.5,1.801l-2.5,2l-2.299,2l-2.201,2.1l-2.1,2.301
		l-2.1,2.299l-1.9,2.5l-1.801,2.5l-1.6,2.602l-1.6,2.699l-1.4,2.699l-1.299,2.801l-1.201,2.9l-1,2.9l-0.9,3l-0.799,3l-0.6,3
		l-0.5,3.1l-0.301,3l-0.199,3.1v3.1l0.1,3.1l0.199,3.101l0.4,3.101l0.5,3l0.699,3l0.801,3l0.9,3l1.1,2.899l1.199,2.8l1.4,2.801
		l1.5,2.699l1.6,2.7l1.701,2.5l1.799,2.5l2,2.399l2,2.301l2.201,2.3l2.299,2.101l2.301,2 M117.999,480.026 M93.499,511.526l-1.1-0.1
		l-1.199-0.201l-1.201-0.399l-1.1-0.5l-1.1-0.7l-1.1-0.8l-1-0.899l-1-1.101l-1-1.2l-0.9-1.3l-0.801-1.5l-0.799-1.5l-0.895-1.7
		l-0.559-1.065 M101.999,511.526h-8.5 M101.999,511.526l1.201-0.1l1.199-0.201l1.1-0.399l1.201-0.5l1.1-0.7l1.1-0.8l1-0.899l1-1.101
		l0.9-1.2l0.9-1.3l0.898-1.5l0.801-1.5l1.19-2.766"/>
	
		<path fill="none" stroke="#0000FF" stroke-width="0.0028" stroke-linecap="round" stroke-linejoin="round" stroke-miterlimit="10" d="
		M121.6,416.212v-1.3l-0.1-1.2l-0.2-1.2l-0.2-1.199l-0.3-1.201l-0.3-1.199l-0.4-1.1l-0.5-1.201l-0.5-1.1l-0.6-1.1l-0.953-0.648
		l-0.699-1l-0.348-1.352l-0.8-1l-0.801-0.9l-0.899-0.8l-0.9-0.8l-1-0.801l-1-0.699l-1-0.7l-1.1-0.601l-1.101-0.5l-1.1-0.5
		l-1.2-0.399l-1.1-0.399l-1.2-0.301l-1.2-0.3l-1.2-0.2l-1.199-0.1l-1.301-0.1H97.2l-1.2,0.1l-1.2,0.1l-1.3,0.2l-1.2,0.3l-1.1,0.301
		l-1.2,0.399l-1.2,0.399l-1.1,0.5l-1.101,0.5l-1,0.601l-1.1,0.7l-1,0.699l-0.9,0.801l-1,0.8l-0.8,0.8l-0.9,0.9l-0.8,1l-0.7,1
		l-0.514,1.049l-0.601,1l-0.785,1.051l-0.5,1.1l-0.5,1.201l-0.4,1.1l-0.3,1.199l-0.3,1.201l-0.2,1.199l-0.2,1.2l-0.1,1.2v1.3v1.2
		l0.1,1.199l0.2,1.201l0.2,1.199l0.3,1.2l0.3,1.2l0.4,1.199l0.5,1.101l0.5,1.101l0.6,1.1l0.601,1l0.699,1l0.7,1l0.8,1l0.9,0.9
		l0.8,0.799l1,0.801l0.9,0.8l1,0.7l1.1,0.699l1,0.601l1.101,0.5l1.1,0.5l1.2,0.399l1.2,0.4l1.1,0.301l1.2,0.299l1.3,0.201l1.2,0.1
		l1.313-0.35h1.199l1.188,0.35l1.199-0.1l1.2-0.201l1.2-0.299l1.2-0.301l1.1-0.4l1.2-0.399l1.1-0.5l1.101-0.5l1.1-0.601l1-0.699
		l1-0.7l1-0.8l0.9-0.801l0.899-0.799l0.801-0.9l0.8-1l0.7-1l0.699-1l0.601-1l0.6-1.1l0.5-1.101l0.5-1.101l0.4-1.199l0.3-1.2l0.3-1.2
		l0.2-1.199l0.2-1.201l0.1-1.199V416.212"/>
	
		<circle fill="none" stroke="#0000FF" stroke-width="0.0028" stroke-linecap="round" stroke-linejoin="round" stroke-miterlimit="10" cx="97.8" cy="416.112" r="32.3"/>
	
		<path fill="none" stroke="#0000FF" stroke-width="0.0028" stroke-linecap="round" stroke-linejoin="round" stroke-miterlimit="10" d="
		M93.499,466.026v17.199c0,2.347,1.902,4.25,4.25,4.25s4.25-1.903,4.25-4.25v-17.199"/>
</g>
<g>
	
		<path fill="none" stroke="#0000FF" stroke-width="0.0028" stroke-linecap="round" stroke-linejoin="round" stroke-miterlimit="10" d="
		M225.007,498.561l-0.813-2.8l-1.4-2.801l-1.5-2.699l-1.6-2.7l-1.7-2.5l-1.8-2.5l-2-2.399l-2-2.301l-2.2-2.3l-2.3-2.101l-2.3-2
		l-4.234-3.033"/>
	
		<path fill="none" stroke="#0000FF" stroke-width="0.0028" stroke-linecap="round" stroke-linejoin="round" stroke-miterlimit="10" d="
		M283.25,469.661l-2.787,1.799l-2.3,2l-2.3,2.101l-2.2,2.3l-2,2.301l-2,2.399l-1.8,2.5l-1.7,2.5l-1.6,2.7l-1.5,2.699l-1.4,2.801
		l-0.813,2.8"/>
	
		<path fill="none" stroke="#0000FF" stroke-width="0.0028" stroke-linecap="round" stroke-linejoin="round" stroke-miterlimit="10" d="
		M247.259,466.026l2.701-0.301l2.699-0.5l2.6-0.6l2.5-0.699l2.6-0.9l2.5-1l2.4-1.1l2.401-1.301l2.299-1.4l2.201-1.5l2.1-1.6l2-1.8
		l2-1.8l1.799-2l1.801-2l1.616-2.192l1.483-2.208l1.301-2.3l1.299-2.3l1.102-2.5l1-2.5l0.799-2.5l0.801-2.6l0.5-2.601l0.5-2.7
		l0.199-2.699l0.201-2.601v-2.7l-0.201-2.699l-0.299-2.701l-0.4-2.6l-0.6-2.6l-0.701-2.6l-0.9-2.5l-1-2.5l-1.1-2.5l-1.299-2.301
		l-1.4-2.3l-1.5-2.3l-1.6-2.1l-1.701-2l-1.9-2l-1.898-1.801l-2.102-1.8l-2.1-1.601l-2.199-1.5l-2.301-1.399l-2.399-1.2l-2.4-1.1
		l-2.5-1l-2.6-0.9l-2.6-0.699l-2.602-0.6l-2.6-0.4l-2.699-0.301l-2.9,0.635l-2.5-0.734l-2.6,0.1l-2.701,0.301l-2.6,0.4l-2.699,0.6
		l-2.6,0.699l-2.5,0.9l-2.5,1l-2.4,1.1l-2.4,1.201l-2.301,1.398l-2.199,1.5l-2.199,1.602l-2,1.799l-1.9,1.801l-1.9,2l-1.699,2
		l-1.701,2.1l-1.5,2.301l-1.4,2.299l-1.199,2.301l-1.1,2.5l-1,2.5l-0.9,2.5l-0.699,2.6l-0.602,2.6l-0.5,2.6l-0.199,2.701
		l-0.199,2.699v2.7l0.1,2.601l0.299,2.699l0.4,2.7l0.6,2.601l0.701,2.6l0.9,2.5l1,2.5l1.1,2.5l1.934,1.816l0.666,2.783l1.5,2.301
		l1.6,2.1l1.701,2l1.898,2l1.9,1.8l2.1,1.8l2.102,1.6l2.199,1.5l2.301,1.4l2.398,1.301l2.4,1.1l2.5,1l2.5,0.9l2.6,0.699l2.602,0.6
		l2.699,0.5l2.6,0.301 M283.25,469.661l1.709-1.234l2.301-2l2.299-2.101l2.102-2.3l2.1-2.301l2-2.399l1.799-2.5l1.701-2.5l1.6-2.7
		l1.5-2.699l1.301-2.801l1.199-2.8l1.1-2.899l1-3l0.801-3l0.6-3l0.6-3l0.4-3.101l0.199-3.101l0.102-3.1v-3.1l-0.201-3.1l-0.4-3
		l-0.398-3.101l-0.701-3l-0.699-3l-0.9-3l-1-2.899l-1.199-2.9l-1.301-2.801l-1.4-2.699l-1.6-2.7l-1.699-2.601l-1.801-2.5l-1.9-2.5
		l-2-2.299l-2.1-2.301l-2.199-2.1l-2.4-2l-2.4-2l-2.5-1.801l-2.6-1.699l-2.6-1.6l-2.801-1.4l-2.801-1.301l-2.799-1.199l-2.901-1.1
		l-3-0.9l-3-0.801l-3-0.6l-3.1-0.5l-3-0.4l-3.1-0.199l-3.1-0.1l-3.1,0.1l-3.102,0.199l-3.1,0.4l-3,0.5l-3,0.6l-3,0.801l-3,0.9
		l-2.9,1.1l-2.898,1.199l-2.801,1.301l-2.699,1.4l-2.701,1.6l-2.5,1.699l-2.5,1.801l-2.5,2l-2.299,2l-2.201,2.1l-2.1,2.301
		l-2.1,2.299l-1.9,2.5l-1.801,2.5l-1.6,2.602l-1.6,2.699l-1.4,2.699l-1.299,2.801l-1.201,2.9l-1,2.9l-0.9,3l-0.799,3l-0.6,3
		l-0.5,3.1l-0.301,3l-0.199,3.1v3.1l0.1,3.1l0.199,3.101l0.4,3.101l0.5,3l0.699,3l0.801,3l0.9,3l1.1,2.899l1.199,2.8l1.4,2.801
		l1.5,2.699l1.6,2.7l1.701,2.5l1.799,2.5l2,2.399l2,2.301l2.201,2.3l2.299,2.101l2.301,2 M263.259,480.026 M238.759,511.526
		l-1.1-0.1l-1.199-0.201l-1.201-0.399l-1.1-0.5l-1.1-0.7l-1.1-0.8l-1-0.899l-1-1.101l-1-1.2l-0.9-1.3l-0.801-1.5l-0.799-1.5
		l-0.895-1.7l-0.559-1.065 M247.259,511.526h-8.5 M247.259,511.526l1.201-0.1l1.199-0.201l1.1-0.399l1.201-0.5l1.1-0.7l1.1-0.8
		l1-0.899l1-1.101l0.9-1.2l0.9-1.3l0.898-1.5l0.801-1.5l1.19-2.766"/>
	
		<path fill="none" stroke="#0000FF" stroke-width="0.0028" stroke-linecap="round" stroke-linejoin="round" stroke-miterlimit="10" d="
		M266.859,416.212v-1.3l-0.1-1.2l-0.2-1.2l-0.2-1.199l-0.3-1.201l-0.3-1.199l-0.4-1.1l-0.5-1.201l-0.5-1.1l-0.6-1.1l-0.953-0.648
		l-0.699-1l-0.348-1.352l-0.8-1l-0.801-0.9l-0.899-0.8l-0.9-0.8l-1-0.801l-1-0.699l-1-0.7l-1.1-0.601l-1.101-0.5l-1.1-0.5
		l-1.2-0.399l-1.1-0.399l-1.2-0.301l-1.2-0.3l-1.2-0.2l-1.199-0.1l-1.301-0.1h-1.199l-1.2,0.1l-1.2,0.1l-1.3,0.2l-1.2,0.3
		l-1.1,0.301l-1.2,0.399l-1.2,0.399l-1.1,0.5l-1.101,0.5l-1,0.601l-1.1,0.7l-1,0.699l-0.9,0.801l-1,0.8l-0.8,0.8l-0.9,0.9l-0.8,1
		l-0.7,1l-0.514,1.049l-0.601,1l-0.785,1.051l-0.5,1.1l-0.5,1.201l-0.4,1.1l-0.3,1.199l-0.3,1.201l-0.2,1.199l-0.2,1.2l-0.1,1.2v1.3
		v1.2l0.1,1.199l0.2,1.201l0.2,1.199l0.3,1.2l0.3,1.2l0.4,1.199l0.5,1.101l0.5,1.101l0.6,1.1l0.601,1l0.699,1l0.7,1l0.8,1l0.9,0.9
		l0.8,0.799l1,0.801l0.9,0.8l1,0.7l1.1,0.699l1,0.601l1.101,0.5l1.1,0.5l1.2,0.399l1.2,0.4l1.1,0.301l1.2,0.299l1.3,0.201l1.2,0.1
		l1.313-0.35h1.199l1.188,0.35l1.199-0.1l1.2-0.201l1.2-0.299l1.2-0.301l1.1-0.4l1.2-0.399l1.1-0.5l1.101-0.5l1.1-0.601l1-0.699
		l1-0.7l1-0.8l0.9-0.801l0.899-0.799l0.801-0.9l0.8-1l0.7-1l0.699-1l0.601-1l0.6-1.1l0.5-1.101l0.5-1.101l0.4-1.199l0.3-1.2l0.3-1.2
		l0.2-1.199l0.2-1.201l0.1-1.199V416.212"/>
	
		<circle fill="none" stroke="#0000FF" stroke-width="0.0028" stroke-linecap="round" stroke-linejoin="round" stroke-miterlimit="10" cx="243.06" cy="416.112" r="32.3"/>
	
		<path fill="none" stroke="#0000FF" stroke-width="0.0028" stroke-linecap="round" stroke-linejoin="round" stroke-miterlimit="10" d="
		M238.759,466.026v17.199c0,2.347,1.902,4.25,4.25,4.25s4.25-1.903,4.25-4.25v-17.199"/>
</g>
</svg>
