<?xml version="1.0" encoding="utf-8"?>
<!-- Generator: Adobe Illustrator 16.0.0, SVG Export Plug-In . SVG Version: 6.00 Build 0)  -->
<!DOCTYPE svg PUBLIC "-//W3C//DTD SVG 1.1//EN" "http://www.w3.org/Graphics/SVG/1.1/DTD/svg11.dtd">
<svg version="1.1" id="Layer_1" xmlns="http://www.w3.org/2000/svg" xmlns:xlink="http://www.w3.org/1999/xlink" x="0px" y="0px"
	 width="3370.39px" height="2383.94px" viewBox="0 0 3370.39 2383.94" enable-background="new 0 0 3370.39 2383.94"
	 xml:space="preserve">
<g>
	
		<polygon fill="none" stroke="#000000" stroke-width="0.709" stroke-linecap="round" stroke-linejoin="round" stroke-miterlimit="10" points="
		968.223,830.295 956.623,830.295 956.623,839.396 968.223,839.396 968.223,862.196 783.522,862.196 783.522,915.795 
		710.022,915.795 710.022,847.596 726.223,847.596 726.223,838.596 710.022,838.596 710.022,735.696 726.223,735.696 
		726.223,726.596 710.022,726.596 710.022,700.94 968.223,700.94 968.223,734.795 956.623,734.795 956.623,743.896 968.223,743.896 
			"/>
	
		<rect x="783.522" y="735.096" fill="none" stroke="#000000" stroke-width="0.709" stroke-linecap="round" stroke-linejoin="round" stroke-miterlimit="10" width="141.101" height="104"/>
</g>
<text transform="matrix(1 0 0 1 1554.0874 458.1958)" font-family="'MyriadPro-Regular'" font-size="36.047">Clear 3mm</text>
<text transform="matrix(1 0 0 1 764.0874 474.1958)" font-family="'MyriadPro-Regular'" font-size="36.047">White 3mm</text>
<g>
	<rect x="1173.623" y="737.882" width="28.347" height="28.347"/>
	<text transform="matrix(1 0 0 1 1213.1221 755.8848)" font-family="'MyriadPro-Regular'" font-size="12">10mm square</text>
</g>
<g>
	
		<rect x="1446.687" y="655.375" fill="none" stroke="#000000" stroke-width="0.709" stroke-linecap="round" stroke-linejoin="round" stroke-miterlimit="10" width="16.2" height="9"/>
	
		<rect x="1509.488" y="528.174" fill="none" stroke="#000000" stroke-width="0.709" stroke-linecap="round" stroke-linejoin="round" stroke-miterlimit="10" width="9" height="9.1"/>
	
		<rect x="1509.488" y="724.174" fill="none" stroke="#000000" stroke-width="0.709" stroke-linecap="round" stroke-linejoin="round" stroke-miterlimit="10" width="9" height="9.1"/>
	
		<rect x="1509.488" y="665.574" fill="none" stroke="#000000" stroke-width="0.709" stroke-linecap="round" stroke-linejoin="round" stroke-miterlimit="10" width="9" height="28.9"/>
	
		<rect x="1509.488" y="577.075" fill="none" stroke="#000000" stroke-width="0.709" stroke-linecap="round" stroke-linejoin="round" stroke-miterlimit="10" width="9" height="29"/>
	
		<rect x="1446.687" y="559.774" fill="none" stroke="#000000" stroke-width="0.709" stroke-linecap="round" stroke-linejoin="round" stroke-miterlimit="10" width="24.9" height="9.101"/>
	
		<rect x="1453.087" y="528.174" fill="none" stroke="#000000" stroke-width="0.709" stroke-linecap="round" stroke-linejoin="round" stroke-miterlimit="10" width="23.3" height="9.1"/>
	
		<rect x="1462.287" y="724.174" fill="none" stroke="#000000" stroke-width="0.709" stroke-linecap="round" stroke-linejoin="round" stroke-miterlimit="10" width="11.9" height="9.1"/>
	
		<rect x="1418.087" y="721.375" fill="none" stroke="#000000" stroke-width="0.709" stroke-linecap="round" stroke-linejoin="round" stroke-miterlimit="10" width="9" height="11.898"/>
	
		<rect x="1418.087" y="672.674" fill="none" stroke="#000000" stroke-width="0.709" stroke-linecap="round" stroke-linejoin="round" stroke-miterlimit="10" width="9" height="26.1"/>
	
		<path fill="none" stroke="#000000" stroke-width="0.709" stroke-linecap="round" stroke-linejoin="round" stroke-miterlimit="10" d="
		M1462.887,625.273"/>
	
		<polyline fill="none" stroke="#000000" stroke-width="0.709" stroke-linecap="round" stroke-linejoin="round" stroke-miterlimit="10" points="
		1467.25,625.273 1462.887,625.273 1462.887,693.273 1482.887,693.273 1482.887,625.273 1478.625,625.273 	"/>
	
		<circle fill="none" stroke="#000000" stroke-width="0.709" stroke-linecap="round" stroke-linejoin="round" stroke-miterlimit="10" cx="1493.95" cy="728.725" r="4.535"/>
	
		<circle fill="none" stroke="#000000" stroke-width="0.709" stroke-linecap="round" stroke-linejoin="round" stroke-miterlimit="10" cx="1442.587" cy="728.725" r="4.535"/>
	
		<path fill="none" stroke="#000000" stroke-width="0.709" stroke-linecap="round" stroke-linejoin="round" stroke-miterlimit="10" d="
		M1544.287,722.475v7l-17.5,11.299h-116.1v-76.398h7.4v-9h-7.4v-86.501h7.4v-9.101h-7.4v-22.5h8.801v-9.1h-8.5l8.199-8.199h99.1
		l26,26.1v59.483c0,1.219-1.174,2.225-2.399,1l-6.101-5.701v-32.683c0-2.505-2.03-4.535-4.535-4.535s-4.465,2.03-4.465,4.535v143
		L1544.287,722.475z"/>
	
		<circle fill="none" stroke="#000000" stroke-width="0.709" stroke-linecap="round" stroke-linejoin="round" stroke-miterlimit="10" cx="1531.488" cy="552.075" r="4.535"/>
	
		<circle fill="none" stroke="#000000" stroke-width="0.709" stroke-linecap="round" stroke-linejoin="round" stroke-miterlimit="10" cx="1493.95" cy="532.725" r="4.535"/>
	
		<circle fill="none" stroke="#000000" stroke-width="0.709" stroke-linecap="round" stroke-linejoin="round" stroke-miterlimit="10" cx="1435.587" cy="532.725" r="4.535"/>
	
		<circle fill="none" stroke="#000000" stroke-width="0.709" stroke-linecap="round" stroke-linejoin="round" stroke-miterlimit="10" cx="1531.322" cy="725.975" r="4.535"/>
</g>
<path fill="none" stroke="#000000" stroke-width="0.709" stroke-linecap="round" stroke-linejoin="round" stroke-miterlimit="10" d="
	M1818.214,609.494c0,0.783,0.635,1.417,1.417,1.417c0.783,0,1.418-0.634,1.418-1.417v-0.001v-3.4h8.5v11.5h8.5v8.5h-100.5v-8.5
	h-56.701v8.5h-100.5v-8.5h8.5v-11.5h8.5v3.4c0,0.783,0.635,1.417,1.417,1.417c0.783,0,1.418-0.634,1.418-1.417h3.665v-3.4h4.9
	c2.438,0,2.799-1.3,2.799-2.8v-3.101c0-1.6-0.393-2.899-2.799-2.899h-4.9v-3.399l-3.665-0.001c0-0.783-0.635-1.417-1.418-1.417
	c-0.782,0-1.417,0.634-1.417,1.417v0.001v3.399h-8.5v-13.4h-8.5v-22.699h8.5v-13.4h8.5v3.4c0,0.783,0.635,1.417,1.417,1.417
	c0.783,0,1.418-0.634,1.418-1.417h3.665v-3.4h4.9c2.375,0,2.799-1.744,2.799-2.801v-3.199c0-0.925-0.424-2.801-2.799-2.801h-4.9
	v-3.399h-3.665c0-0.783-0.635-1.417-1.418-1.417c-0.782,0-1.417,0.634-1.417,1.417v3.399h-8.5v-12h-8.5v-8.5h257.701v8.5h-8.5v12
	h-8.5v-3.399c0-0.783-0.635-1.417-1.418-1.417c-0.782,0-1.417,0.634-1.417,1.417h-3.765v3.399h-4.801
	c-2.191,0-2.801,1.313-2.801,2.801v3.199c0,1.379,0.631,2.801,2.801,2.801h4.801v3.4h3.765c0,0.783,0.635,1.417,1.417,1.417
	c0.783,0,1.418-0.634,1.418-1.417v-3.4h8.5v13.4h8.5v22.699h-8.5v13.4h-8.5v-3.399c0-0.783-0.635-1.417-1.418-1.417
	c-0.782,0-1.417,0.634-1.417,1.417h-3.765v3.399h-4.801c-2.17,0-2.801,1.675-2.801,2.899v3.101c0,1.188,0.422,2.8,2.801,2.8h4.801
	v3.4L1818.214,609.494z"/>
<path fill="none" stroke="#000000" stroke-width="0.709" stroke-linecap="round" stroke-linejoin="round" stroke-miterlimit="10" d="
	M1818.214,663.236c0,0.783,0.635,1.417,1.417,1.417c0.783,0,1.418-0.634,1.418-1.417v-3.4h8.5v10.7h-8.799v8.7h8.799h8.5v11.399
	h-8.5v19.801h-8.5v-3.4c0-0.783-0.635-1.417-1.418-1.417c-0.782,0-1.417,0.634-1.417,1.417h-3.765v3.4h-4.799
	c-2.275,0-2.801,1.248-2.801,2.899v3.101c0,1.158,0.4,2.8,2.801,2.8h4.799v3.4h3.765c0,0.783,0.635,1.417,1.417,1.417
	c0.783,0,1.418-0.634,1.418-1.417v-3.4h8.5v11.5h8.5v8.5h-257.7v-8.5h8.5v-11.5h8.5v3.4c0,0.783,0.635,1.417,1.417,1.417
	c0.783,0,1.418-0.634,1.418-1.417h3.665v-3.4h4.9c2.578,0,2.8-1.803,2.8-2.8v-3.101c0-1.057-0.081-2.899-2.8-2.899h-4.9v-3.4h-3.665
	c0-0.783-0.635-1.417-1.418-1.417c-0.782,0-1.417,0.634-1.417,1.417v3.4h-8.5v-15.601h-8.5v-11.3h8.5v-15.6h8.5v3.399
	c0,0.783,0.635,1.417,1.417,1.417c0.783,0,1.418-0.634,1.418-1.417h3.665v-3.399h4.9c2.344,0,2.8-1.576,2.8-2.801v-3.1
	c0-1.391-0.409-2.9-2.8-2.9h-4.9v-3.399l-3.665-0.001c0-0.783-0.635-1.417-1.418-1.417c-0.782,0-1.417,0.634-1.417,1.417v0.001
	v3.399h-8.5v-11.3h186.1v-16.2h45.801v8.801h8.799v10.6h-8.5v-3.4c0-0.783-0.635-1.417-1.418-1.417
	c-0.782,0-1.417,0.634-1.417,1.417h-3.765v3.4h-4.799c-2.307,0-2.801,1.395-2.801,2.9v3.1c0,1.5,0.244,2.8,2.801,2.8h4.799v3.4
	H1818.214z"/>
<polygon fill="none" stroke="#000000" stroke-width="0.709" stroke-linecap="round" stroke-linejoin="round" stroke-miterlimit="10" points="
	1722.047,582.093 1725.447,585.393 1753.348,585.393 1756.648,582.093 1756.648,570.093 1722.049,570.093 "/>
<polygon fill="none" stroke="#000000" stroke-width="0.709" stroke-linecap="round" stroke-linejoin="round" stroke-miterlimit="10" points="
	1626.348,585.393 1629.647,582.093 1629.647,570.093 1595.047,570.093 1595.047,582.093 1598.448,585.393 "/>
<g>
	
		<rect x="1643.547" y="533.593" fill="none" stroke="#000000" stroke-width="0.709" stroke-linecap="round" stroke-linejoin="round" stroke-miterlimit="10" width="72.3" height="11.101"/>
	
		<polygon fill="none" stroke="#000000" stroke-width="0.709" stroke-linecap="round" stroke-linejoin="round" stroke-miterlimit="10" points="
		1806.248,564.273 1806.248,556.793 1780.248,556.793 1780.248,567.293 1806.248,567.293 1810.916,567.293 1810.916,564.273 	"/>
</g>
<g>
	
		<rect x="1765.949" y="712.336" fill="none" stroke="#000000" stroke-width="0.709" stroke-linecap="round" stroke-linejoin="round" stroke-miterlimit="10" width="9" height="18.601"/>
	
		<rect x="1765.949" y="670.636" fill="none" stroke="#000000" stroke-width="0.709" stroke-linecap="round" stroke-linejoin="round" stroke-miterlimit="10" width="9" height="21.301"/>
</g>
<polygon fill="none" stroke="#000000" stroke-width="0.709" stroke-linecap="round" stroke-linejoin="round" stroke-miterlimit="10" points="
	1431.841,941.666 1431.841,755.766 1424.641,755.766 1424.641,773.066 1415.541,773.066 1415.541,764.266 1408.141,764.266 
	1408.141,941.666 1415.541,941.666 1415.541,932.866 1424.641,932.866 1424.641,941.666 "/>
<g>
	
		<polygon fill="none" stroke="#000000" stroke-width="0.709" stroke-linecap="round" stroke-linejoin="round" stroke-miterlimit="10" points="
		1506.434,924.565 1506.434,950.065 1480.834,950.065 1480.834,941.565 1457.734,941.565 1457.734,950.065 1446.334,950.065 
		1446.334,764.266 1480.834,764.266 1480.834,755.766 1500.734,755.766 1500.734,772.766 1492.234,772.766 1492.234,933.366 
		1500.934,933.366 1500.934,924.565 	"/>
	
		<rect x="1468.334" y="882.866" fill="none" stroke="#000000" stroke-width="0.709" stroke-linecap="round" stroke-linejoin="round" stroke-miterlimit="10" width="9.1" height="9.1"/>
</g>
<g>
	
		<path fill="none" stroke="#000000" stroke-width="0.709" stroke-linecap="round" stroke-linejoin="round" stroke-miterlimit="10" d="
		M1522.387,853.091v-46.9h-12.7v18.1h8.5v21h-8.5v20.7h8.5v23.1h-8.5l0,16.2h59l0-19.3h1.7v-5.7h8.5v-14.2h-8.5v-5.6h-1.7v-2.9
		h-16.5c0,3.05-2.717,4.95-4.95,4.95s-6.35-0.917-6.35-4.95h-6.899l-4.101,7.4h-5.399l-4-7.4h-2.301v-4.5H1522.387z"/>
</g>
<polyline fill="none" stroke="#000000" stroke-width="0.709" stroke-linecap="round" stroke-linejoin="round" stroke-miterlimit="10" points="
	1555.487,881.591 1555.487,889.091 1544.187,889.091 1544.187,897.591 1563.988,897.591 1563.987,881.591 1555.487,881.591 "/>
<g>
	
		<path fill="none" stroke="#000000" stroke-width="0.709" stroke-linecap="round" stroke-linejoin="round" stroke-miterlimit="10" d="
		M1713.799,770.209L1713.799,770.209v-4.153c0-2.541-2.059-4.6-4.6-4.6s-4.6,2.06-4.6,4.6v4.186h0.012
		c-2.352,1.512-3.912,4.146-3.912,7.148c0,4.694,3.805,8.5,8.5,8.5s8.5-3.806,8.5-8.5
		C1717.699,774.364,1716.18,771.716,1713.799,770.209z"/>
	
		<circle fill="none" stroke="#000000" stroke-width="0.709" stroke-linecap="round" stroke-linejoin="round" stroke-miterlimit="10" cx="1775.699" cy="906.122" r="6.551"/>
	
		<path fill="none" stroke="#000000" stroke-width="0.709" stroke-linecap="round" stroke-linejoin="round" stroke-miterlimit="10" d="
		M1639.149,819.456v19.4h64.699v-19.4h11.701v19.4h64.602v-19.4h10c2.346,0,4.25-1.903,4.25-4.25s-1.904-4.25-4.25-4.25h-10v-19.5
		h-64.602v19.5h-11.701v-19.5h-64.699v19.5h-9.9c-2.33,0-4.219,1.951-4.219,4.281s1.889,4.219,4.219,4.219H1639.149z"/>
</g>
<path fill="none" stroke="#000000" stroke-width="0.709" stroke-linecap="round" stroke-linejoin="round" stroke-miterlimit="10" d="
	M1588.849,880.956h19.3c0-3.914,3.173-7.086,7.087-7.086c3.914,0,7.086,3.173,7.086,7.086c0,3.914-3.173,7.087-7.086,7.087h-7.087
	v16.481v14.645h7.087c3.914,0,7.086,3.173,7.086,7.087c0,3.914-3.173,7.086-7.086,7.086c-3.914,0-7.087-3.173-7.087-7.086h-19.3
	v13.3h-8.5v8.5h249.2v-30.3h8.5v-28.3h-8.5v-60.1h8.5v-28.4h-8.5v-8.5h-11.699v-9.1h11.699v-22.7h-92v-8.6h-56.7v8.6h-92v14.5h8.8
	v9.1h-8.8v16.7h-8.5v28.4h8.5V880.956z"/>
<path fill="none" stroke="#000000" stroke-width="0.709" stroke-linecap="round" stroke-linejoin="round" stroke-miterlimit="10" d="
	M894.556,771.714v14.101h3.367v15.75h-2.766v-6.125h-9.701v6.125h-3.033v-15.75h3.633v-14.101c0-1.209,0.713-1.5,1.4-1.5h5.701
	C894.091,770.214,894.556,770.708,894.556,771.714z"/>
<path fill="none" stroke="#000000" stroke-width="0.709" stroke-linecap="round" stroke-linejoin="round" stroke-miterlimit="10" d="
	M860.733,788.148c-1.975,7.201-8.55,12.5-16.378,12.5c-9.389,0-17-7.611-17-17s7.611-17,17-17c7.828,0,14.403,5.299,16.378,12.5
	h2.189v-19.359h-15.301v-8.5h-17v8.5h-15.299v60.7h8.5v-8.5h30.6v8.5h8.5v-32v-0.341H860.733z"/>
<g>
	
		<rect x="737.979" y="563.732" fill="none" stroke="#000000" stroke-width="0.709" stroke-linecap="round" stroke-linejoin="round" stroke-miterlimit="10" width="17.6" height="9.1"/>
	
		<rect x="737.979" y="612.332" fill="none" stroke="#000000" stroke-width="0.709" stroke-linecap="round" stroke-linejoin="round" stroke-miterlimit="10" width="9.1" height="11.9"/>
	
		<rect x="865.179" y="563.732" fill="none" stroke="#000000" stroke-width="0.709" stroke-linecap="round" stroke-linejoin="round" stroke-miterlimit="10" width="29" height="9.1"/>
	
		<rect x="933.979" y="563.732" fill="none" stroke="#000000" stroke-width="0.709" stroke-linecap="round" stroke-linejoin="round" stroke-miterlimit="10" width="9.1" height="9.1"/>
	
		<rect x="910.579" y="609.132" fill="none" stroke="#000000" stroke-width="0.709" stroke-linecap="round" stroke-linejoin="round" stroke-miterlimit="10" width="9.1" height="24.199"/>
	
		<rect x="933.979" y="605.931" fill="none" stroke="#000000" stroke-width="0.709" stroke-linecap="round" stroke-linejoin="round" stroke-miterlimit="10" width="9.1" height="23.3"/>
	
		<polygon fill="none" stroke="#000000" stroke-width="0.709" stroke-linecap="round" stroke-linejoin="round" stroke-miterlimit="10" points="
		798.879,623.931 751.279,623.931 751.279,661.832 793.279,661.832 798.879,656.132 798.879,633.332 807.679,633.332 
		807.679,609.132 798.879,609.132 	"/>
	
		<circle fill="none" stroke="#000000" stroke-width="0.709" stroke-linecap="round" stroke-linejoin="round" stroke-miterlimit="10" cx="742.529" cy="647.782" r="4.536"/>
	
		<circle fill="none" stroke="#000000" stroke-width="0.709" stroke-linecap="round" stroke-linejoin="round" stroke-miterlimit="10" cx="742.529" cy="588.395" r="4.535"/>
	
		<circle fill="none" stroke="#000000" stroke-width="0.709" stroke-linecap="round" stroke-linejoin="round" stroke-miterlimit="10" cx="745.279" cy="550.732" r="4.535"/>
	
		<circle fill="none" stroke="#000000" stroke-width="0.709" stroke-linecap="round" stroke-linejoin="round" stroke-miterlimit="10" cx="938.529" cy="588.311" r="4.535"/>
	
		<circle fill="none" stroke="#000000" stroke-width="0.709" stroke-linecap="round" stroke-linejoin="round" stroke-miterlimit="10" cx="919.179" cy="550.732" r="4.535"/>
	
		<circle fill="none" stroke="#000000" stroke-width="0.709" stroke-linecap="round" stroke-linejoin="round" stroke-miterlimit="10" cx="938.529" cy="646.682" r="4.536"/>
	
		<path fill="none" stroke="#000000" stroke-width="0.709" stroke-linecap="round" stroke-linejoin="round" stroke-miterlimit="10" d="
		M951.279,564.032v99l-8.2,8.2v-8.5h-9.1v8.8h-14.3v-9.5h-9.1v9.5h-102.9v-9.5h-9v9.5h-68.2v-116l11.3-17.601h7l11.3,17.601l8.5,8.5
		v32.8h45.3v-32.8l8.5-8.5h80.7v-0.029c2.505,0,4.535-2.03,4.535-4.536c0-2.504-2.03-4.535-4.535-4.535h-32.683l-5.7-6.1
		c-1.015-1.015-0.346-2.4,1-2.4h59.483L951.279,564.032z"/>
</g>
<path fill="none" stroke="#000000" stroke-width="0.709" stroke-linecap="round" stroke-linejoin="round" stroke-miterlimit="10" d="
	M906.073,888.321h29.2v-8.5h15.399c4.975,0,5.6,3.539,5.6,5.701v8.5c0,4.725-1.949,5.6-5.1,5.6v-8.4h-9.1v8.5h-11.6v-5.125h-4.602
	v5.125h-31.1v-8.5h-4.6v-11.4h15.9V888.321z"/>
<path fill="none" stroke="#000000" stroke-width="0.709" stroke-linecap="round" stroke-linejoin="round" stroke-miterlimit="10" d="
	M858.129,991.097h-1.4c-5.406,0-5.7-5.6-5.7-5.6v-11.101c0-5.725,4.2-5.6,5.7-5.6h19.4v8.5h29.3v-8.5h23.6v8.5h45.4v8.5h-8.5v8.5
	h-8.5v-3.2h-38.4v-6.5h-4.5v16.7h-6.2v19.8h-25v-30h-4.5v10.8h-11.6v-17.3h-9.1V991.097z"/>
<path fill="none" stroke="#000000" stroke-width="0.709" stroke-linecap="round" stroke-linejoin="round" stroke-miterlimit="10" d="
	M866.879,950.106h-8.5v-8.5h-8.601v-11.399h46.9v-8.5h24.399v8.5h29.2v-8.5h15.4c4.725,0,5.7,3.424,5.7,5.699v8.5
	c0,5.4-3.426,5.601-5.2,5.601v-8.4h-9.101v8.5h-11.6v-5.1h-4.5v5.1h-31.2v-8.5h-4.6v8.5h-38.3V950.106z"/>
<g>
	
		<rect x="776.479" y="1018.523" fill="none" stroke="#000000" stroke-width="0.709" stroke-linecap="round" stroke-linejoin="round" stroke-miterlimit="10" width="14.8" height="9.624"/>
	
		<path fill="none" stroke="#000000" stroke-width="0.709" stroke-linecap="round" stroke-linejoin="round" stroke-miterlimit="10" d="
		M813.979,956.047v8.5h9v13.801h-19v-6.5h-4.5v62h-31.2v-55.5h-4.5v10.8h-11.7v-17.3h-9v6.5h-1.399c0,0-5.7-0.101-5.7-5.601v-11.1
		c0-5.483,5.7-5.601,5.7-5.601h19.399v8.5h5.8v8.801h17.601v-8.801h5.899v-8.5H813.979z"/>
</g>
</svg>
